<?xml version="1.0" encoding="utf-8"?>
<!-- Generator: Adobe Illustrator 25.4.1, SVG Export Plug-In . SVG Version: 6.00 Build 0)  -->
<svg version="1.1" id="Calque_1" xmlns="http://www.w3.org/2000/svg" xmlns:xlink="http://www.w3.org/1999/xlink" x="0px" y="0px"
	 viewBox="0 0 400 205" style="enable-background:new 0 0 400 205;" xml:space="preserve">
<style type="text/css">
	.st0{display:none;}
	.st1{fill:#AE9A64;}
	.st2{fill:#004411;}
	.st3{fill:#FFFFFF;}
</style>
<g id="Layer_1" class="st0">
</g>
<g id="literie_x5F_exception_copy">
</g>
<g id="Calque_5">
</g>
<g id="drapeau">
	<g>
		<path class="st1" d="M63.6,197.2H50.3l0.2-0.8c2.1,0,2.4-0.3,2.9-1.8l3.4-11.5c0.2-0.3,0.2-0.6,0.2-0.8c0-0.6-0.5-0.8-2.1-0.8
			l0.2-0.8c1.8,0.2,2.7,0.2,4,0.2s2.2,0,4-0.2l-0.2,0.8c-2.1,0-2.4,0.3-2.9,1.6l-3.4,11.5c-0.2,0.3-0.2,0.6-0.2,0.8
			c0,0.5,0.3,0.6,1.4,0.6h1.8c1.6,0,2.6-0.3,3.5-1.4c0.6-0.6,1.1-1.1,1.6-2.1h0.8L63.6,197.2z"/>
		<path class="st1" d="M73.2,197.4c-1.4-0.2-2.1-0.2-3.2-0.2c-1.1,0-1.9,0-3.4,0.2l0.2-0.6c1.8,0,2.1-0.3,2.4-1.4l2.9-9.6
			c0.2-0.3,0.2-0.6,0.2-0.8c0-0.5-0.3-0.6-1.8-0.6l0.2-0.6c1.4,0.2,2.2,0.2,3.2,0.2c1.1,0,1.8,0,3.4-0.2l-0.2,0.6
			c-1.8,0-2.1,0.3-2.4,1.4l-2.9,9.6c0,0.3-0.2,0.6-0.2,0.8c0,0.5,0.3,0.6,1.6,0.6V197.4z"/>
		<path class="st1" d="M83.3,195.3c-0.2,0.3-0.2,0.6-0.2,0.8c0,0.5,0.3,0.6,1.8,0.6l-0.2,0.6c-1.4-0.2-2.1-0.2-3.2-0.2
			c-1.1,0-1.9,0-3.4,0.2l0.2-0.6c1.8,0,2.1-0.3,2.4-1.4l3.2-10.9h-0.8c-1.8,0-2.7,0.6-4,2.7h-1l1.8-3.5h10.9l-0.3,3.5h-0.6v-0.3
			c0-1.8-0.6-2.6-2.4-2.6h-0.8L83.3,195.3z"/>
		<path class="st1" d="M100.6,197.2H89.4l0.2-0.6c1.8,0,2.1-0.3,2.4-1.4l2.9-9.5c0.2-0.3,0.2-0.6,0.2-0.8c0-0.5-0.3-0.6-1.8-0.6
			l0.2-0.6h10.9l-0.5,3.4h-0.6c0-0.2,0-0.3,0-0.3c0-1.9-0.5-2.2-2.7-2.2h-2.6l-1.6,5.5h5l-0.3,0.8h-5l-1.3,4.5
			c-0.2,0.6-0.2,0.6-0.2,0.8c0,0.3,0.5,0.6,1.3,0.6h1.4c1.4,0,2.2-0.3,3-1.1c0.5-0.5,1-1,1.3-1.8h0.6L100.6,197.2z"/>
		<path class="st1" d="M108.9,195.3c-0.2,0.5-0.2,0.6-0.2,0.8c0,0.5,0.3,0.6,1.6,0.6l-0.2,0.6c-1.3-0.2-2.1-0.2-3.2-0.2
			s-1.9,0-3.4,0.2l0.2-0.6c1.8,0,2.1-0.3,2.4-1.4l2.9-9.5c0-0.3,0.2-0.6,0.2-0.8c0-0.5-0.3-0.6-1.8-0.6l0.2-0.6h6.1
			c1.6,0,2.6,0,3.2,0.3c1.3,0.3,1.9,1.3,1.9,2.4c0,1.4-1,2.7-2.4,3.5c-0.8,0.5-1.6,0.6-2.9,0.8c1.3,0.3,1.6,0.8,1.9,2.1l0.5,1.8
			c0.2,0.6,0.3,1,0.5,1.3c0.3,0.5,0.8,0.8,1.6,0.8c0.3,0,0.6,0,1.1-0.2l-0.2,0.6c-0.8,0.3-1.4,0.3-2.2,0.3c-1.1,0-1.9-0.3-2.4-0.8
			c-0.3-0.5-0.6-1-1-2.1l-0.5-2.1c-0.5-1.6-0.8-1.8-2.2-1.8h-0.5L108.9,195.3z M112,190.2c1.6,0,2.6-0.3,3.2-1.1
			c0.6-0.6,1-1.8,1-2.7c0-0.8-0.3-1.4-1.1-1.6c-0.3-0.2-1-0.2-1.9-0.2h-1l-1.8,5.8h1.6V190.2z"/>
		<path class="st1" d="M126.6,197.4c-1.4-0.2-2.1-0.2-3.2-0.2c-1.1,0-1.9,0-3.4,0.2l0.2-0.6c1.8,0,2.1-0.3,2.4-1.4l2.9-9.6
			c0.2-0.3,0.2-0.6,0.2-0.8c0-0.5-0.3-0.6-1.8-0.6l0.2-0.6c1.4,0.2,2.2,0.2,3.2,0.2c1.1,0,1.8,0,3.4-0.2l-0.2,0.6
			c-1.8,0-2.1,0.3-2.4,1.4l-2.9,9.6c0,0.3-0.2,0.6-0.2,0.8c0,0.5,0.3,0.6,1.6,0.6V197.4z"/>
		<path class="st1" d="M140.4,197.2h-11.2l0.2-0.6c1.8,0,2.1-0.3,2.4-1.4l2.9-9.5c0.2-0.3,0.2-0.6,0.2-0.8c0-0.5-0.3-0.6-1.8-0.6
			l0.2-0.6H144l-0.5,3.4h-0.6c0-0.2,0-0.3,0-0.3c0-1.9-0.5-2.2-2.7-2.2h-2.6l-1.6,5.5h5l-0.3,0.8h-5l-1.3,4.5
			c-0.2,0.6-0.2,0.6-0.2,0.8c0,0.3,0.5,0.6,1.3,0.6h1.4c1.4,0,2.2-0.3,3-1.1c0.5-0.5,1-1,1.3-1.8h0.6L140.4,197.2z"/>
		<path class="st1" d="M154.5,183.8h6.3c2.4,0,3.7,0.3,4.6,1c1.1,0.8,1.6,2.1,1.6,3.7c0,2.7-1.3,5.1-3.4,6.7c-1.8,1.4-4,2.1-7.1,2.1
			h-6.3l0.2-0.6c1.8,0,2.1-0.3,2.4-1.4l2.9-9.5c0.2-0.3,0.2-0.6,0.2-0.8c0-0.5-0.3-0.6-1.8-0.6L154.5,183.8z M155.6,195.3
			c-0.2,0.5-0.2,0.6-0.2,0.6c0,0.3,0.3,0.5,1.1,0.5c2.1,0,3.4-0.3,4.3-1.1c1.9-1.6,3.4-5,3.4-7.9c0-2.2-1-3.2-3.8-3.2h-1.6
			L155.6,195.3z"/>
		<path class="st1" d="M170.8,188.6c1-0.8,1.8-1.9,2.1-2.6c-0.8,0-1.1-0.5-1.1-1c0-0.8,0.8-1.4,1.8-1.4c0.8,0,1.4,0.5,1.4,1.1
			c0,1.1-1.1,2.6-3,4h-1.1V188.6z"/>
		<path class="st1" d="M185.4,197.2h-11.2l0.2-0.6c1.8,0,2.1-0.3,2.4-1.4l2.9-9.5c0.2-0.3,0.2-0.6,0.2-0.8c0-0.5-0.3-0.6-1.8-0.6
			l0.2-0.6h10.9l-0.5,3.4H188c0-0.2,0-0.3,0-0.3c0-1.9-0.5-2.2-2.7-2.2h-2.6l-1.6,5.5h5l-0.3,0.8h-5l-1.3,4.5
			c-0.2,0.6-0.2,0.6-0.2,0.8c0,0.3,0.5,0.6,1.3,0.6h1.4c1.4,0,2.2-0.3,3-1.1c0.5-0.5,1-1,1.3-1.8h0.6L185.4,197.2z"/>
		<path class="st1" d="M187.8,196.7c1.6-0.2,1.9-0.3,4-2.2l4-3.7l-1.6-5.1c-0.3-1-0.6-1.3-2.1-1.3l0.2-0.6c1.3,0.2,2.1,0.2,3.4,0.2
			c1.3,0,1.9,0,3.2-0.2l-0.2,0.6c-1.3,0-1.8,0.3-1.8,0.8c0,0.2,0,0.2,0.2,0.5l1.1,3.4l3.4-3c0.5-0.5,0.8-0.8,0.8-1.1
			c0-0.3-0.3-0.5-0.8-0.5c-0.2,0-0.3,0-0.5,0v-0.6c1.3,0,2.4-0.3,3.4-0.6c0,0.3,0,0.3,0,0.5c0,0.6-0.2,0.8-1.6,2.2
			c-0.2,0.2-0.3,0.3-0.5,0.5l-3.7,3.4l1.6,5.3c0.5,1.4,0.8,1.6,2.4,1.8l-0.2,0.6c-1.4-0.2-2.1-0.2-3.4-0.2c-1.1,0-1.9,0-3.4,0.2
			l0.2-0.6c1.4-0.2,1.8-0.3,1.8-0.8c0-0.2,0-0.3-0.2-0.8l-1.1-3.4l-3.8,3.5c-0.6,0.6-0.8,0.8-0.8,1.1s0.3,0.3,1.3,0.5l-0.2,0.6
			c-1,0-1.6-0.2-2.4-0.2s-1.4,0-2.4,0.2L187.8,196.7z"/>
		<path class="st1" d="M216.8,192.6c-0.8,3.2-3.4,5.1-6.7,5.1c-3.4,0-5.5-1.8-5.5-4.8c0-2.4,1-4.8,2.6-6.6c1.8-1.9,3.8-2.7,6.3-2.7
			c1.3,0,1.9,0.2,3.4,0.8c0.3,0.2,0.6,0.2,0.8,0.2c0.3,0,0.5,0,1-0.3l-1,3.8h-0.8c0-0.2,0-0.3,0-0.5c0-2.1-1.1-3.2-3.2-3.2
			c-1.9,0-3.5,1-4.8,3c-1,1.6-1.6,3.8-1.6,5.8c0,2.1,1.3,3.4,3.4,3.4c2.4,0,4.3-1.4,5.1-3.8h1.1V192.6z"/>
		<path class="st1" d="M229,197.2h-11.2l0.2-0.6c1.8,0,2.1-0.3,2.4-1.4l2.9-9.5c0.2-0.3,0.2-0.6,0.2-0.8c0-0.5-0.3-0.6-1.8-0.6
			l0.2-0.6h10.9l-0.5,3.4h-0.6c0-0.2,0-0.3,0-0.3c0-1.9-0.5-2.2-2.7-2.2h-2.6l-1.6,5.5h5l-0.3,0.8h-5l-1.3,4.5
			c-0.2,0.6-0.2,0.6-0.2,0.8c0,0.3,0.5,0.6,1.3,0.6h1.4c1.4,0,2.2-0.3,3-1.1c0.5-0.5,1-1,1.3-1.8h0.6L229,197.2z"/>
		<path class="st1" d="M237.4,195.3c-0.2,0.3-0.2,0.5-0.2,0.6c0,0.5,0.3,0.6,1.8,0.6l-0.2,0.6c-1.4-0.2-2.2-0.2-3.4-0.2
			c-1.1,0-1.9,0-3.4,0.2l0.2-0.6c1.8,0,2.1-0.3,2.4-1.4l2.9-9.5c0.2-0.3,0.2-0.6,0.2-0.8c0-0.5-0.3-0.6-1.8-0.6l0.2-0.6h6.4
			c1.9,0,2.9,0.2,3.7,0.6c0.6,0.5,1.1,1.3,1.1,2.1c0,1.4-0.8,2.9-2.1,3.7c-1.1,0.8-2.7,1.1-4.6,1.1h-2.1L237.4,195.3z M239.9,190.6
			c1.6,0,2.7-0.3,3.5-1.3c0.6-0.8,1.1-2.1,1.1-3c0-1.3-0.8-1.9-2.9-1.9h-1.1l-1.9,6.3H239.9z"/>
		<path class="st1" d="M254.2,195.3c-0.2,0.3-0.2,0.6-0.2,0.8c0,0.5,0.3,0.6,1.8,0.6l-0.2,0.6c-1.4-0.2-2.1-0.2-3.2-0.2
			c-1.1,0-1.9,0-3.4,0.2l0.2-0.6c1.8,0,2.1-0.3,2.4-1.4l3.2-10.9H254c-1.8,0-2.7,0.6-4,2.7h-0.8l1.8-3.5h10.9l-0.3,3.5h-0.6v-0.3
			c0-1.8-0.6-2.6-2.4-2.6h-0.8L254.2,195.3z"/>
		<path class="st1" d="M267,197.4c-1.4-0.2-2.1-0.2-3.2-0.2c-1.1,0-1.9,0-3.4,0.2l0.2-0.6c1.8,0,2.1-0.3,2.4-1.4l2.9-9.6
			c0.2-0.3,0.2-0.6,0.2-0.8c0-0.5-0.3-0.6-1.8-0.6l0.2-0.6c1.4,0.2,2.2,0.2,3.2,0.2c1.1,0,1.8,0,3.4-0.2l-0.2,0.6
			c-1.8,0-2.1,0.3-2.4,1.4l-2.9,9.6c0,0.3-0.2,0.6-0.2,0.8c0,0.5,0.3,0.6,1.6,0.6V197.4z"/>
		<path class="st1" d="M284,184.6c1,0.8,1.4,2.1,1.4,3.7c0,2.2-0.8,4.6-2.2,6.3c-1.6,1.9-3.8,3-6.3,3c-3.4,0-5.5-1.8-5.5-5
			c0-2.6,1.1-5.3,2.9-7.1c1.6-1.4,3.4-2.2,5.8-2.2C281.6,183.4,283,183.8,284,184.6z M276,187c-1.1,1.9-1.8,4.6-1.8,6.6
			c0,2.1,1,3.2,2.7,3.2c1.6,0,2.9-1.1,4.2-3.4c1-1.9,1.6-4.5,1.6-6.3c0-2.1-1-3.4-2.6-3.4C278.4,184.1,277.1,184.9,276,187z"/>
		<path class="st1" d="M298.1,197.7l-5.9-12.2l-2.6,8.8c-0.3,0.8-0.5,1.6-0.5,1.8c0,0.5,0.3,0.6,1.6,0.8l-0.2,0.6
			c-1.1,0-1.6-0.2-2.4-0.2c-0.8,0-1.3,0-2.4,0.2l0.2-0.6c1.3-0.2,1.8-0.3,2.1-1.1c0.3-0.5,0.5-1.3,1.4-4.5l1.8-6.1
			c-0.5-0.5-1-0.6-1.8-0.6l0.2-0.6c0.8,0,1.4,0,2.1,0c0.8,0,1.3,0,2.1,0l5,9.8l2.2-7.5c0.2-0.3,0.2-0.6,0.2-0.8
			c0-0.5-0.3-0.6-1.6-0.6l0.2-0.6c1.1,0,1.6,0.2,2.4,0.2c0.8,0,1.3,0,2.4-0.2l-0.2,0.6c-1.6,0-2.1,0.3-2.4,1.8l-3.5,11.5h-0.3V197.7
			z"/>
	</g>
	<path class="st1" d="M2.6,170.3c-0.2,0-0.3,0.2-0.6,0.3h44.9c102.6-14.7,207.3-19.4,310.4-7.1c2.2,0.3,6.1,0.8,8.5,1.1
		C247.9,142.4,121.8,150.4,2.6,170.3z"/>
	<g>
		<path class="st2" d="M226.8,56.3c5.8-0.2,11.5-4,12.3-8.2c0.6-3.2-2.1-5.3-6.6-5.1c-5.8,0.2-11.7,4-12.5,8
			C219.6,54.4,222.3,56.5,226.8,56.3z"/>
		<path class="st2" d="M398,93.5c-1.4-0.3-21-5.6-53.1-2.6c-0.6-8-6.1-17.5-20.2-16c-14.1,1.4-26.6,8.8-36.1,21.6
			c-1,1.3-2.7,3.8-4.3,7.1c-18.1,7.4-44.2,19.9-44.2,19.9s0.3-0.6,11.7-24c2.4-5,5.9-11.4,9.8-18.1c28.2-5.8,55-11.2,55.5-12.2
			l0.2-0.2l-0.2-0.2c-0.2-0.3-0.5-0.8-39,2.6c-3.8,0.3-7.5,0.6-11.2,1c13.3-22.6,28.9-46.8,28.9-46.8s-9-0.3-14.1,3.2
			c0,0-13.1,21.2-26,44.6l-5.1,0.5c-6.1,0.5-10.1,1-10.4,1c-1.1,0-1.9,0.2-2.1,0.8c-0.6,1.1,0.8,3,2.4,5.3c0.5,0.8,1.1,1.6,1.6,2.4
			c0.5,0.8,1,1.3,1.3,1.6c1.6-0.3,3.8-0.8,7.1-1.3c-4,7.7-7.9,15.2-10.9,22.1c-2.4,5.1-4.6,9.6-6.3,13.5c-12.5,5.3-29.7,12.7-34,5.6
			c-9.5-15.1,28.4-59.6,28.4-59.6S221,65,215.9,67c-2.6,0.6-5,3.7-10.3,9.9c-5.9,6.9-29,24.9-29,24.9s13.9-4.3,22.8-10.7
			c-4.6,8.5-9.1,18-11.4,26.3c-12,5-36.6,16.5-38.3,7.4c-4.6-24,60.1-117.7,60.1-117.7s-9-0.3-14.1,3.2c0,0-48.4,80.3-56.8,105.7
			c-5.5,2.6-77.4,30.8-92.3,11.9c-1.9-2.6-3-5.5-2.4-9.5c0.8-4.5,4.6-14.1,9.8-22.6c0.5-1,3.8-6.4,6.3-10.4c2.1-0.3,4.5-0.6,7.2-1.1
			c40.7-7.7,82.6-15.6,83-16.8l0.2-0.3l-0.2-0.2c-0.3-0.5-0.6-1-51.5,3.2c-8.8,0.6-17.8,1.4-25.5,2.1l-5.1,0.5l8-12.2
			c4-6.3,17-25.2,19.4-27.6c1.6-1.6,2.6-1.8,3.8-2.1c3.5-0.6,7.5-1,12-1.4c9.3-1.6,21.2-3.4,26.6-3.8c3.7-0.3,4.8,0,5.1,0.3
			c0,0,0.2,0.2,0,0.3c0,0.3-0.5,1.4-1.4,2.6c-0.2,0.2-0.5,0.5-0.8,0.8c-0.6,0.6-1,1-1.1,1.4v0.6l0.3,0.3c0.5,0.5,1.4,0.5,2.1,0.5
			c2.2-0.2,30.1-13.1,30.8-14.6c2.4-4-2.4-3.8-2.4-3.8l-67,7.5c0.2-0.5,0.5-1.1,1.4-2.1l0.3-0.3l-0.2-0.5c-1.1-3.7-3.8-4.8-5.8-4.6
			c-1.3,0.2-2.4,1.1-2.9,2.4c-0.2,0.3-0.3,0.8-0.5,1.1c-0.8,1.6-1.3,2.9-3,3.8c-2.6,1.3-5.8,1.9-27.1,4.2c-3.5,0.3-6.9,0.6-10.1,1.1
			c-4,0.6-5.8,2.1-5.8,4.8c0.2,1.1,0.5,2.1,2.4,2.6c0.6,1.8,1.3,2.1,2.4,2.2c2.1,0.6,3.8,0.5,6.1,0.2h0.5l0.2-0.5
			c0.2-0.3,0.5-0.6,0.6-1.1c0.2-0.2,0.3-0.3,0.3-0.5c2.4-1,6.7-1.9,11.2-2.2c2.2-0.2,8-0.8,9.3,0.6c0.2,0.2,0.3,0.3,0.2,0.6
			c-0.2,1.1-0.8,2.9-1.8,4.5C78,44,68.1,59,58.3,73.8c-5.9,0.5-9.9,0.8-10.3,1c-1.6,0-2.4,0.3-2.9,1c-0.8,1.4,1.1,3.7,3.2,6.4
			c0.8,1,1.4,1.9,2.1,2.9c0.2,0.2,0.2,0.2,0.3,0.3c-1.3,1.9-2.6,3.8-3.8,5.8c-6.6,9.9-18.1,31.9-19.2,36.2
			c-9.3,34.6,82.2,8.5,109-4.3c-2.4,17.3,11.4,16.2,23.2,11.9c6.4-2.2,18.4-8,26.3-12.7c-3,18.1,11.1,17,23.1,12.7
			c5-1.8,13.3-5.6,20.5-9.5c-2.7,6.7-6.7,16.5-6.7,16.5s13-9.1,56.9-28.1c-2.1,9.3-0.2,19.7,16.4,23.4c21.5,4.8,51.9-17.3,50.8-20
			c-0.6-1.4-49.5,32.9-56.1,1.1c-0.5-2.2-0.5-5,0.6-8.2C347.5,90.9,396.4,93.5,398,93.5z M324.3,80.7c6.7-0.6,10.1,1.3,10.6,7.5
			c0.2,1,0,2.6-0.2,4.2c-11.4,1.6-24.2,4.3-38,8.5C301.2,93.8,313,81.8,324.3,80.7z"/>
	</g>
	<g>
		<path class="st1" d="M331.5,32.2v29.2c13.5-1.1,18.1-4.5,31.3-5.8V26.5C349.6,27.6,345.7,31.1,331.5,32.2z"/>
	</g>
	<polygon class="st3" points="356,41.1 349.7,41.1 349.7,34.8 344.3,34.8 344.3,41.1 338,41.1 338,46.7 344.3,46.7 344.3,52.9 
		349.7,52.9 349.7,46.7 356,46.7 	"/>
</g>
<g id="espace_de_réserve">
</g>
</svg>
