<svg width="410" height="169" viewBox="0 0 410 169" fill="none" xmlns="http://www.w3.org/2000/svg">
<path d="M0.612991 168.575C0.388376 168.626 0.17856 168.728 0 168.873H46.3882C152.501 153.569 260.668 148.843 367.196 161.528L375.976 162.672C254.108 139.74 123.641 147.931 0.612991 168.575Z" fill="black"/>
<path d="M232.272 50.7464C238.319 50.564 244.151 46.6176 245.046 42.2567C245.741 38.9403 242.975 36.8179 238.419 36.9506C232.372 37.133 226.341 41.0794 225.463 45.2413C224.685 48.6571 227.633 50.8791 232.272 50.7464Z" fill="black"/>
<path d="M409.077 89.1824C407.636 88.8176 387.341 83.4286 354.223 86.5957C353.544 78.3049 347.994 68.555 333.299 70.0142C318.604 71.4733 305.831 79.2003 296.089 92.3661C294.413 94.6961 292.928 97.1582 291.649 99.7283C272.945 107.306 245.957 120.356 245.957 120.356C245.957 120.356 246.272 119.61 258.084 95.4834C260.619 90.2934 264.181 83.7768 268.207 76.7463C297.414 70.8267 325.049 65.1392 325.463 64.1443L325.546 63.9287L325.446 63.7463C325.247 63.365 324.999 62.9173 285.254 66.3994L273.657 67.4274C287.441 44.0143 303.478 19.0093 303.478 19.0093C303.478 19.0093 294.167 18.6943 288.932 22.3256C288.932 22.3256 275.397 44.1635 262.093 68.4887L256.759 68.9695L245.924 69.981C244.731 69.981 243.985 70.2131 243.687 70.8101C243.091 72.0039 244.499 73.9771 246.139 76.2488C246.719 77.0447 247.315 77.907 247.796 78.6531C248.16 79.2686 248.612 79.8272 249.138 80.3113C250.794 79.9962 253.097 79.5485 256.444 78.9848C252.302 86.861 248.376 94.7041 245.145 101.9C242.577 107.157 240.34 111.849 238.601 115.812C225.662 121.317 208.018 128.945 203.412 121.599C193.555 106.062 232.703 59.9326 232.703 59.9326C228.59 59.844 224.496 60.5129 220.625 61.9058C217.942 62.5359 215.456 65.7195 209.94 72.2361C203.893 79.3993 180.019 97.9706 180.019 97.9706C180.019 97.9706 194.383 93.5268 203.594 86.8113C198.666 95.4104 194.736 104.545 191.881 114.038C179.439 119.162 154.158 131.2 152.335 121.649C147.614 96.7768 214.545 0.00688779 214.545 0.00688779C214.545 0.00688779 205.235 -0.308161 199.999 3.3232C199.999 3.3232 149.999 86.3967 141.335 112.529C135.636 115.149 61.2986 144.382 45.9574 124.75C44.8477 123.397 44.0496 121.816 43.6201 120.119C43.1906 118.423 43.1401 116.652 43.4723 114.934C44.251 110.274 48.2105 100.275 53.5286 91.5038C53.9593 90.4758 57.4219 84.8712 60.0561 80.7093L67.5445 79.532C109.675 71.6226 152.832 63.3815 153.412 62.1213L153.528 61.856L153.396 61.6405C153.147 61.1596 152.799 60.6124 100.232 64.9568L73.8234 67.0626L68.5882 67.5103L76.8718 54.8586C80.9805 48.4416 94.3833 28.8919 96.9347 26.3715C97.9541 25.1729 99.3838 24.3982 100.944 24.1994C104.655 23.4864 108.664 23.1216 113.419 22.6904C122.978 21.0323 135.288 19.2083 140.954 18.6943C144.814 18.3461 145.924 18.6943 146.288 18.943C146.288 18.943 146.388 19.0591 146.288 19.341C145.958 20.295 145.433 21.1701 144.748 21.9111C144.505 22.2031 144.239 22.4748 143.952 22.7236C143.323 23.3371 142.892 23.7351 142.826 24.2491V24.8626L143.124 25.1445C143.433 25.3645 143.783 25.5192 144.153 25.599C144.523 25.6788 144.906 25.6822 145.278 25.6088C147.614 25.3932 176.391 12.0119 177.021 10.4367C179.473 6.24154 174.519 6.52343 174.519 6.52343L105.351 14.3499C105.7 13.5744 106.176 12.8627 106.759 12.2441L107.057 11.8959L106.925 11.4481C106.671 10.0761 105.932 8.8415 104.842 7.97055C103.753 7.0996 102.387 6.65061 100.994 6.70583C100.297 6.79506 99.6406 7.08109 99.1007 7.53041C98.5608 7.97972 98.16 8.57372 97.9453 9.24281C97.7631 9.62418 97.5974 10.0056 97.4317 10.3704C96.9241 12.0572 95.7923 13.4866 94.2674 14.3665C91.6829 15.7759 88.2866 16.29 66.3516 18.6777C62.6571 19.0259 59.178 19.341 55.9308 19.8384C51.7228 20.568 49.9501 22.0272 50.0329 24.8129C50.2152 25.8907 50.5631 26.8856 52.6008 27.383C53.1973 29.207 53.9428 29.5718 55.1522 29.6713C57.2245 30.1411 59.3683 30.2031 61.4643 29.8537H61.9613L62.1767 29.3894C62.3811 29.0131 62.6137 28.6528 62.8725 28.3116L63.2536 27.7644C66.997 26.4596 70.8966 25.6567 74.8506 25.3766C77.0872 25.1777 83.1342 24.6305 84.4099 25.9902C84.5038 26.0841 84.5727 26.2001 84.6103 26.3275C84.6479 26.455 84.6531 26.5898 84.6253 26.7197C84.2998 28.3301 83.6881 29.869 82.8194 31.2631C78.9593 37.4812 68.6876 53.1839 58.7473 68.356L48.1277 69.268C46.471 69.268 45.5598 69.5499 45.1622 70.296C44.3835 71.7552 46.2556 74.1761 48.4756 76.9287C49.2211 77.907 50.0163 78.935 50.679 79.8968C50.679 80.0294 50.8447 80.1123 50.9275 80.2284L47.0011 86.1646C40.192 96.4783 28.3464 119.328 27.1205 123.655C17.5778 159.405 112.094 132.46 139.777 119.112C137.21 137.02 151.507 135.81 163.8 131.366C173.161 127.693 182.237 123.331 190.954 118.316C187.856 137.037 202.385 135.876 214.86 131.366C222.098 128.555 229.163 125.316 236.016 121.666C233.134 128.547 229.108 138.778 229.108 138.778C229.108 138.778 242.511 129.293 287.955 109.694C285.735 119.377 287.822 130.056 304.936 133.953C327.103 138.927 358.663 116.028 357.52 113.242C356.907 111.8 306.344 147.284 299.535 114.353C299.014 111.507 299.219 108.576 300.132 105.83C356.957 86.5294 407.504 89.0829 409.077 89.1824ZM332.984 75.8177C339.976 75.1213 343.438 77.1442 343.968 83.5281C344.031 84.9748 343.954 86.4242 343.736 87.8559C330.422 89.7718 317.277 92.7268 304.422 96.6939C309.128 89.5472 321.354 76.995 332.984 75.8177Z" fill="black"/>
<path fill-rule="evenodd" clip-rule="evenodd" d="M340.39 55.9032V25.7248C348.125 25.1487 352.927 23.8788 357.701 22.6166C361.995 21.4809 366.266 20.3514 372.63 19.7389V49.9339C366.031 50.5563 361.527 51.7148 357.023 52.8733C352.289 54.0909 347.555 55.3084 340.39 55.9032ZM359.277 34.9775H365.738V40.6815H359.277V47.1483H353.577V40.6815H347.116V34.9775H353.577V28.4941H359.277V34.9775Z" fill="black"/>
</svg>
