<svg width="200" height="200" viewBox="0 0 200 200" fill="none" xmlns="http://www.w3.org/2000/svg">
<g clip-path="url(#clip0_102_130)">
<path d="M-3.87619 92.2677C-5.82687 91.2059 -7.70353 91.3047 -8.56776 92.885C-9.18506 93.9467 -9.01224 95.6258 -6.88871 97.8234C-5.57584 99.1587 -4.18222 100.412 -2.71574 101.577C-2.97246 102.126 -3.34512 102.613 -3.80807 103.004C-4.27103 103.396 -4.81333 103.683 -5.3976 103.844C-5.98187 104.006 -6.59428 104.04 -7.19269 103.942C-7.79111 103.845 -8.36125 103.619 -8.86405 103.28C-9.76853 102.775 -10.4805 101.985 -10.8888 101.033C-11.1175 100.414 -11.3899 99.8117 -11.7037 99.2309C-11.7222 99.2099 -11.7449 99.193 -11.7705 99.1815C-11.796 99.17 -11.8238 99.164 -11.8519 99.164C-11.8799 99.164 -11.9075 99.17 -11.9331 99.1815C-11.9586 99.193 -11.9815 99.2099 -12 99.2309C-11.9634 100.51 -11.5961 101.757 -10.934 102.852C-10.272 103.947 -9.33762 104.852 -8.22203 105.478C-7.57238 105.84 -6.85617 106.067 -6.11648 106.145C-5.37679 106.222 -4.62896 106.149 -3.91824 105.93C-3.20753 105.711 -2.54859 105.35 -1.98118 104.869C-1.41378 104.388 -0.949624 103.797 -0.616817 103.132C0.332855 101.213 0.524763 99.0062 -0.0792389 96.9517C-0.683241 94.8972 -2.03886 93.1455 -3.87619 92.0455M-2.41944 100.959C-4.09851 99.5519 -6.51828 97.6259 -6.83928 96.0209C-6.99995 95.1313 -6.84263 94.2135 -6.39484 93.4282C-6.3159 93.2059 -6.18819 93.0041 -6.02108 92.8376C-5.85397 92.6711 -5.65169 92.5441 -5.4291 92.4659C-5.20651 92.3878 -4.96931 92.3605 -4.73478 92.386C-4.50026 92.4115 -4.27435 92.4892 -4.07377 92.6134C-2.27125 93.6011 -0.419382 96.7617 -2.41944 101.033" fill="white" fill-opacity="0.15"/>
<path d="M-0.667827 103.33C-1.05416 103.959 -1.30743 104.661 -1.41203 105.392C-1.51662 106.123 -1.47043 106.868 -1.27609 107.581C-1.08174 108.293 -0.743336 108.959 -0.282012 109.535C0.179311 110.112 0.753782 110.589 1.40623 110.935C2.54744 111.559 3.8329 111.871 5.13326 111.841C6.43361 111.811 7.703 111.439 8.81386 110.762C8.83552 110.741 8.85288 110.716 8.86465 110.689C8.87643 110.661 8.88244 110.631 8.88244 110.601C8.88244 110.571 8.87643 110.542 8.86465 110.514C8.85288 110.487 8.83552 110.462 8.81386 110.441C8.14256 110.505 7.475 110.604 6.81381 110.737C5.78271 110.895 4.72824 110.722 3.80144 110.243C3.24676 110.007 2.75092 109.652 2.34936 109.202C1.9478 108.753 1.6504 108.22 1.47827 107.642C1.30613 107.065 1.26349 106.456 1.35348 105.86C1.44347 105.264 1.66394 104.695 1.99896 104.194C3.76893 104.82 5.58511 105.308 7.43111 105.651C10.5176 106.219 12.0238 105.502 12.6658 104.391C13.5301 102.786 12.666 101.206 10.6412 100.144C8.70897 99.1981 6.49493 99 4.42538 99.588C2.35582 100.176 0.576896 101.509 -0.569112 103.33M10.3202 100.539C10.5492 100.634 10.7521 100.783 10.9122 100.972C11.0722 101.161 11.1847 101.386 11.2403 101.628C11.2958 101.869 11.293 102.121 11.2317 102.361C11.1704 102.601 11.0526 102.823 10.8881 103.009C10.458 103.814 9.75896 104.443 8.91273 104.786C6.6538 105.041 4.36807 104.683 2.29526 103.749C4.76447 99.7739 8.51767 99.6504 10.3202 100.613" fill="white" fill-opacity="0.15"/>
<path d="M196.124 92.2677C194.173 91.2059 192.296 91.3047 191.432 92.885C190.815 93.9467 190.988 95.6258 193.111 97.8234C194.424 99.1587 195.818 100.412 197.284 101.577C197.028 102.126 196.655 102.613 196.192 103.004C195.729 103.396 195.187 103.683 194.602 103.844C194.018 104.006 193.406 104.04 192.807 103.942C192.209 103.845 191.639 103.619 191.136 103.28C190.231 102.775 189.52 101.985 189.111 101.033C188.882 100.414 188.61 99.8117 188.296 99.2309C188.278 99.2099 188.255 99.193 188.23 99.1815C188.204 99.17 188.176 99.164 188.148 99.164C188.12 99.164 188.092 99.17 188.067 99.1815C188.041 99.193 188.019 99.2099 188 99.2309C188.037 100.51 188.404 101.757 189.066 102.852C189.728 103.947 190.662 104.852 191.778 105.478C192.428 105.84 193.144 106.067 193.884 106.145C194.623 106.222 195.371 106.149 196.082 105.93C196.792 105.711 197.451 105.35 198.019 104.869C198.586 104.388 199.05 103.797 199.383 103.132C200.333 101.213 200.525 99.0062 199.921 96.9517C199.317 94.8972 197.961 93.1455 196.124 92.0455M197.581 100.959C195.901 99.5519 193.482 97.6259 193.161 96.0209C193 95.1313 193.157 94.2135 193.605 93.4282C193.684 93.2059 193.812 93.0041 193.979 92.8376C194.146 92.6711 194.348 92.5441 194.571 92.4659C194.793 92.3878 195.031 92.3605 195.265 92.386C195.5 92.4115 195.726 92.4892 195.926 92.6134C197.729 93.6011 199.581 96.7617 197.581 101.033" fill="white" fill-opacity="0.15"/>
<path d="M199.332 103.33C198.946 103.959 198.693 104.661 198.588 105.392C198.483 106.123 198.53 106.868 198.724 107.581C198.918 108.293 199.257 108.959 199.718 109.535C200.179 110.112 200.754 110.589 201.406 110.935C202.547 111.559 203.833 111.871 205.133 111.841C206.434 111.811 207.703 111.439 208.814 110.762C208.836 110.741 208.853 110.716 208.865 110.689C208.876 110.661 208.882 110.631 208.882 110.601C208.882 110.571 208.876 110.542 208.865 110.514C208.853 110.487 208.836 110.462 208.814 110.441C208.143 110.505 207.475 110.604 206.814 110.737C205.783 110.895 204.728 110.722 203.801 110.243C203.247 110.007 202.751 109.652 202.349 109.202C201.948 108.753 201.65 108.22 201.478 107.642C201.306 107.065 201.263 106.456 201.353 105.86C201.443 105.264 201.664 104.695 201.999 104.194C203.769 104.82 205.585 105.308 207.431 105.651C210.518 106.219 212.024 105.502 212.666 104.391C213.53 102.786 212.666 101.206 210.641 100.144C208.709 99.1981 206.495 99 204.425 99.588C202.356 100.176 200.577 101.509 199.431 103.33M210.32 100.539C210.549 100.634 210.752 100.783 210.912 100.972C211.072 101.161 211.185 101.386 211.24 101.628C211.296 101.869 211.293 102.121 211.232 102.361C211.17 102.601 211.053 102.823 210.888 103.009C210.458 103.814 209.759 104.443 208.913 104.786C206.654 105.041 204.368 104.683 202.295 103.749C204.764 99.7739 208.518 99.6504 210.32 100.613" fill="white" fill-opacity="0.15"/>
<path d="M19.0073 117.014C19.6219 117.641 19.6219 118.657 19.0073 119.284C18.3927 119.911 17.3963 119.911 16.7817 119.284C16.1671 118.657 16.1671 117.641 16.7817 117.014C17.3963 116.387 18.3927 116.387 19.0073 117.014Z" fill="white" fill-opacity="0.15"/>
<path d="M27.1678 125.338C27.7824 125.965 27.7824 126.982 27.1678 127.609C26.5533 128.236 25.5568 128.236 24.9422 127.609C24.3277 126.982 24.3277 125.965 24.9422 125.338C25.5568 124.712 26.5533 124.712 27.1678 125.338Z" fill="white" fill-opacity="0.15"/>
<path d="M35.3284 133.663C35.943 134.29 35.943 135.306 35.3284 135.933C34.7138 136.56 33.7174 136.56 33.1028 135.933C32.4882 135.306 32.4882 134.29 33.1028 133.663C33.7174 133.036 34.7138 133.036 35.3284 133.663Z" fill="white" fill-opacity="0.15"/>
<path d="M43.4889 141.988C44.1035 142.615 44.1035 143.631 43.4889 144.258C42.8743 144.885 41.8779 144.885 41.2633 144.258C40.6487 143.631 40.6487 142.615 41.2633 141.988C41.8779 141.361 42.8743 141.361 43.4889 141.988Z" fill="white" fill-opacity="0.15"/>
<path d="M51.6495 150.312C52.264 150.939 52.264 151.956 51.6495 152.582C51.0349 153.209 50.0385 153.209 49.4239 152.582C48.8093 151.956 48.8093 150.939 49.4239 150.312C50.0385 149.685 51.0349 149.685 51.6495 150.312Z" fill="white" fill-opacity="0.15"/>
<path d="M59.81 158.637C60.4246 159.264 60.4246 160.28 59.81 160.907C59.1954 161.534 58.199 161.534 57.5844 160.907C56.9698 160.28 56.9698 159.264 57.5844 158.637C58.199 158.01 59.1954 158.01 59.81 158.637Z" fill="white" fill-opacity="0.15"/>
<path d="M67.9706 166.961C68.5851 167.588 68.5851 168.605 67.9706 169.232C67.356 169.859 66.3595 169.859 65.7449 169.232C65.1304 168.605 65.1304 167.588 65.7449 166.961C66.3595 166.334 67.356 166.334 67.9706 166.961Z" fill="white" fill-opacity="0.15"/>
<path d="M76.1311 175.286C76.7457 175.913 76.7457 176.929 76.1311 177.556C75.5165 178.183 74.5201 178.183 73.9055 177.556C73.2909 176.929 73.2909 175.913 73.9055 175.286C74.5201 174.659 75.5165 174.659 76.1311 175.286Z" fill="white" fill-opacity="0.15"/>
<path d="M84.2916 183.61C84.9062 184.237 84.9062 185.254 84.2916 185.881C83.677 186.508 82.6806 186.508 82.066 185.881C81.4514 185.254 81.4514 184.237 82.066 183.61C82.6806 182.983 83.677 182.983 84.2916 183.61Z" fill="white" fill-opacity="0.15"/>
<path d="M92.4522 191.935C93.0668 192.562 93.0668 193.578 92.4522 194.205C91.8376 194.832 90.8412 194.832 90.2266 194.205C89.612 193.578 89.612 192.562 90.2266 191.935C90.8412 191.308 91.8376 191.308 92.4522 191.935Z" fill="white" fill-opacity="0.15"/>
<path d="M106.547 191.935C107.162 191.308 108.158 191.308 108.773 191.935C109.387 192.562 109.387 193.578 108.773 194.205C108.158 194.832 107.162 194.832 106.547 194.205C105.933 193.578 105.933 192.562 106.547 191.935Z" fill="white" fill-opacity="0.15"/>
<path d="M114.708 183.61C115.322 182.983 116.319 182.983 116.933 183.61C117.548 184.237 117.548 185.254 116.933 185.881C116.319 186.508 115.322 186.508 114.708 185.881C114.093 185.254 114.093 184.237 114.708 183.61Z" fill="white" fill-opacity="0.15"/>
<path d="M122.868 175.286C123.483 174.659 124.479 174.659 125.094 175.286C125.708 175.913 125.708 176.929 125.094 177.556C124.479 178.183 123.483 178.183 122.868 177.556C122.254 176.929 122.254 175.913 122.868 175.286Z" fill="white" fill-opacity="0.15"/>
<path d="M131.029 166.961C131.643 166.334 132.64 166.334 133.254 166.961C133.869 167.588 133.869 168.605 133.254 169.232C132.64 169.859 131.643 169.859 131.029 169.232C130.414 168.605 130.414 167.588 131.029 166.961Z" fill="white" fill-opacity="0.15"/>
<path d="M139.189 158.637C139.804 158.01 140.8 158.01 141.415 158.637C142.03 159.264 142.03 160.28 141.415 160.907C140.8 161.534 139.804 161.534 139.189 160.907C138.575 160.28 138.575 159.264 139.189 158.637Z" fill="white" fill-opacity="0.15"/>
<path d="M147.35 150.312C147.964 149.685 148.961 149.685 149.576 150.312C150.19 150.939 150.19 151.956 149.576 152.583C148.961 153.209 147.964 153.209 147.35 152.583C146.735 151.956 146.735 150.939 147.35 150.312Z" fill="white" fill-opacity="0.15"/>
<path d="M155.51 141.988C156.125 141.361 157.121 141.361 157.736 141.988C158.351 142.615 158.351 143.631 157.736 144.258C157.121 144.885 156.125 144.885 155.51 144.258C154.896 143.631 154.896 142.615 155.51 141.988Z" fill="white" fill-opacity="0.15"/>
<path d="M163.671 133.663C164.286 133.036 165.282 133.036 165.897 133.663C166.511 134.29 166.511 135.306 165.897 135.933C165.282 136.56 164.286 136.56 163.671 135.933C163.056 135.306 163.056 134.29 163.671 133.663Z" fill="white" fill-opacity="0.15"/>
<path d="M171.832 125.339C172.446 124.712 173.443 124.712 174.057 125.339C174.672 125.965 174.672 126.982 174.057 127.609C173.443 128.236 172.446 128.236 171.832 127.609C171.217 126.982 171.217 125.965 171.832 125.339Z" fill="white" fill-opacity="0.15"/>
<path d="M179.992 117.014C180.607 116.387 181.603 116.387 182.218 117.014C182.832 117.641 182.832 118.657 182.218 119.284C181.603 119.911 180.607 119.911 179.992 119.284C179.377 118.657 179.377 117.641 179.992 117.014Z" fill="white" fill-opacity="0.15"/>
<path d="M179.992 85.9861C179.377 85.3591 179.377 84.3427 179.992 83.7157C180.606 83.0888 181.603 83.0888 182.217 83.7157C182.832 84.3427 182.832 85.3591 182.217 85.9861C181.603 86.613 180.606 86.613 179.992 85.9861Z" fill="white" fill-opacity="0.15"/>
<path d="M171.831 77.6615C171.217 77.0346 171.217 76.0181 171.831 75.3912C172.446 74.7642 173.442 74.7642 174.057 75.3912C174.671 76.0181 174.671 77.0346 174.057 77.6615C173.442 78.2884 172.446 78.2884 171.831 77.6615Z" fill="white" fill-opacity="0.15"/>
<path d="M163.671 69.337C163.056 68.71 163.056 67.6936 163.671 67.0666C164.285 66.4397 165.282 66.4397 165.896 67.0666C166.511 67.6936 166.511 68.71 165.896 69.337C165.282 69.9639 164.285 69.9639 163.671 69.337Z" fill="white" fill-opacity="0.15"/>
<path d="M155.51 61.0124C154.895 60.3855 154.895 59.369 155.51 58.7421C156.125 58.1151 157.121 58.1151 157.736 58.7421C158.35 59.369 158.35 60.3855 157.736 61.0124C157.121 61.6393 156.125 61.6393 155.51 61.0124Z" fill="white" fill-opacity="0.15"/>
<path d="M147.349 52.6878C146.735 52.0609 146.735 51.0445 147.349 50.4175C147.964 49.7906 148.96 49.7906 149.575 50.4175C150.19 51.0445 150.19 52.0609 149.575 52.6878C148.96 53.3148 147.964 53.3148 147.349 52.6878Z" fill="white" fill-opacity="0.15"/>
<path d="M139.189 44.3633C138.574 43.7364 138.574 42.7199 139.189 42.093C139.804 41.466 140.8 41.466 141.415 42.093C142.029 42.7199 142.029 43.7364 141.415 44.3633C140.8 44.9902 139.804 44.9902 139.189 44.3633Z" fill="white" fill-opacity="0.15"/>
<path d="M131.028 36.0387C130.414 35.4118 130.414 34.3953 131.028 33.7684C131.643 33.1415 132.639 33.1415 133.254 33.7684C133.869 34.3953 133.869 35.4118 133.254 36.0387C132.639 36.6657 131.643 36.6657 131.028 36.0387Z" fill="white" fill-opacity="0.15"/>
<path d="M122.868 27.7142C122.253 27.0873 122.253 26.0708 122.868 25.4439C123.482 24.8169 124.479 24.8169 125.093 25.4439C125.708 26.0708 125.708 27.0873 125.093 27.7142C124.479 28.3411 123.482 28.3411 122.868 27.7142Z" fill="white" fill-opacity="0.15"/>
<path d="M114.707 19.3896C114.093 18.7627 114.093 17.7462 114.707 17.1193C115.322 16.4924 116.318 16.4924 116.933 17.1193C117.547 17.7462 117.547 18.7627 116.933 19.3896C116.318 20.0166 115.322 20.0166 114.707 19.3896Z" fill="white" fill-opacity="0.15"/>
<path d="M106.547 11.0651C105.932 10.4382 105.932 9.42169 106.547 8.79475C107.161 8.16782 108.158 8.16782 108.772 8.79475C109.387 9.42169 109.387 10.4382 108.772 11.0651C108.158 11.692 107.161 11.692 106.547 11.0651Z" fill="white" fill-opacity="0.15"/>
<path d="M98.3862 2.74053C97.7716 2.1136 97.7716 1.09714 98.3862 0.470201C99.0008 -0.156734 99.9972 -0.156734 100.612 0.470201C101.226 1.09714 101.226 2.1136 100.612 2.74053C99.9972 3.36747 99.0008 3.36747 98.3862 2.74053Z" fill="white" fill-opacity="0.15"/>
<path d="M92.4517 11.065C91.8371 11.692 90.8407 11.692 90.2261 11.065C89.6115 10.4381 89.6115 9.42163 90.2261 8.7947C90.8407 8.16776 91.8371 8.16776 92.4517 8.7947C93.0663 9.42163 93.0663 10.4381 92.4517 11.065Z" fill="white" fill-opacity="0.15"/>
<path d="M84.2912 19.3896C83.6766 20.0165 82.6802 20.0165 82.0656 19.3896C81.451 18.7626 81.451 17.7462 82.0656 17.1192C82.6802 16.4923 83.6766 16.4923 84.2912 17.1192C84.9058 17.7462 84.9058 18.7626 84.2912 19.3896Z" fill="white" fill-opacity="0.15"/>
<path d="M76.1306 27.7141C75.5161 28.3411 74.5196 28.3411 73.905 27.7141C73.2905 27.0872 73.2905 26.0707 73.905 25.4438C74.5196 24.8169 75.5161 24.8169 76.1306 25.4438C76.7452 26.0707 76.7452 27.0872 76.1306 27.7141Z" fill="white" fill-opacity="0.15"/>
<path d="M67.9701 36.0387C67.3555 36.6656 66.3591 36.6656 65.7445 36.0387C65.1299 35.4118 65.1299 34.3953 65.7445 33.7684C66.3591 33.1414 67.3555 33.1414 67.9701 33.7684C68.5847 34.3953 68.5847 35.4118 67.9701 36.0387Z" fill="white" fill-opacity="0.15"/>
<path d="M59.8096 44.3632C59.195 44.9902 58.1985 44.9902 57.584 44.3632C56.9694 43.7363 56.9694 42.7198 57.584 42.0929C58.1985 41.466 59.195 41.466 59.8096 42.0929C60.4241 42.7198 60.4241 43.7363 59.8096 44.3632Z" fill="white" fill-opacity="0.15"/>
<path d="M51.649 52.6878C51.0344 53.3147 50.038 53.3147 49.4234 52.6878C48.8088 52.0609 48.8088 51.0444 49.4234 50.4175C50.038 49.7905 51.0344 49.7905 51.649 50.4175C52.2636 51.0444 52.2636 52.0609 51.649 52.6878Z" fill="white" fill-opacity="0.15"/>
<path d="M43.4885 61.0123C42.8739 61.6393 41.8775 61.6393 41.2629 61.0123C40.6483 60.3854 40.6483 59.3689 41.2629 58.742C41.8775 58.1151 42.8739 58.1151 43.4885 58.742C44.1031 59.3689 44.1031 60.3854 43.4885 61.0123Z" fill="white" fill-opacity="0.15"/>
<path d="M35.3279 69.3369C34.7134 69.9638 33.7169 69.9638 33.1023 69.3369C32.4878 68.71 32.4878 67.6935 33.1023 67.0666C33.7169 66.4396 34.7134 66.4396 35.3279 67.0666C35.9425 67.6935 35.9425 68.71 35.3279 69.3369Z" fill="white" fill-opacity="0.15"/>
<path d="M27.1674 77.6614C26.5528 78.2884 25.5564 78.2884 24.9418 77.6614C24.3272 77.0345 24.3272 76.018 24.9418 75.3911C25.5564 74.7642 26.5528 74.7642 27.1674 75.3911C27.782 76.018 27.782 77.0345 27.1674 77.6614Z" fill="white" fill-opacity="0.15"/>
<path d="M19.0069 85.986C18.3923 86.6129 17.3958 86.6129 16.7812 85.986C16.1667 85.3591 16.1667 84.3426 16.7812 83.7157C17.3958 83.0887 18.3923 83.0887 19.0069 83.7157C19.6214 84.3426 19.6214 85.3591 19.0069 85.986Z" fill="white" fill-opacity="0.15"/>
</g>
<defs>
<clipPath id="clip0_102_130">
<rect width="200" height="200" fill="white"/>
</clipPath>
</defs>
</svg>
