<svg width="33" height="33" viewBox="0 0 33 33" fill="none" xmlns="http://www.w3.org/2000/svg">
<circle cx="16.5" cy="16.5" r="16" stroke="#A39161" stroke-linecap="square" stroke-dasharray="3 5"/>
<path d="M12.1238 6.6187C10.1731 5.55694 8.29647 5.87785 7.43224 7.45815C6.81494 8.51991 6.98776 10.199 9.11129 12.3966C10.4242 13.7319 11.8178 14.9853 13.2843 16.1498C13.0275 16.6991 12.6549 17.1862 12.1919 17.5776C11.729 17.9691 11.1867 18.2557 10.6024 18.4176C10.0181 18.5795 9.40572 18.6129 8.80731 18.5156C8.20889 18.4182 7.63875 18.1924 7.13595 17.8536C6.23147 17.3487 5.51952 16.5586 5.11118 15.6066C4.88248 14.9873 4.61014 14.3849 4.29629 13.804C4.27776 13.783 4.25507 13.7662 4.22953 13.7547C4.20399 13.7432 4.17617 13.7371 4.14815 13.7371C4.12012 13.7371 4.09246 13.7432 4.06691 13.7547C4.04137 13.7662 4.01854 13.783 4 13.804C4.03662 15.0829 4.4039 16.3306 5.06596 17.4253C5.72803 18.5201 6.66238 19.4248 7.77797 20.0511C8.42762 20.4133 9.14383 20.64 9.88352 20.7177C10.6232 20.7954 11.371 20.7224 12.0818 20.5032C12.7925 20.284 13.4514 19.9231 14.0188 19.4422C14.5862 18.9613 15.0504 18.3705 15.3832 17.7054C16.3329 15.786 16.5248 13.5794 15.9208 11.5249C15.3168 9.47035 13.9611 7.71873 12.1238 6.6187ZM13.5806 15.5325C11.9015 14.1251 9.48172 12.1991 9.16072 10.5941C9.00005 9.70449 9.15737 8.78668 9.60516 8.00138C9.6841 7.77907 9.81181 7.57727 9.97892 7.41075C10.146 7.24424 10.3483 7.11725 10.5709 7.0391C10.7935 6.96096 11.0307 6.93364 11.2652 6.95915C11.4997 6.98467 11.7256 7.06239 11.9262 7.18657C13.7288 8.17426 15.5806 11.3349 13.5806 15.6066" fill="#A39161"/>
<path d="M15.4309 17.9028C15.0446 18.5323 14.6926 19.2343 14.588 19.9655C14.4834 20.6967 14.5296 21.4415 14.7239 22.1541C14.9183 22.8667 15.2567 23.5319 15.718 24.1087C16.1793 24.6855 16.7538 25.1618 17.4062 25.508C18.5474 26.132 19.8329 26.4447 21.1333 26.4143C22.4336 26.384 23.703 26.0118 24.8139 25.3352C24.8355 25.3144 24.8529 25.2895 24.8647 25.2619C24.8764 25.2344 24.8824 25.2047 24.8824 25.1747C24.8824 25.1447 24.8764 25.115 24.8647 25.0874C24.8529 25.0598 24.8355 25.0349 24.8139 25.0142C24.1426 25.0787 23.475 25.1776 22.8138 25.3105C21.7827 25.4681 20.7282 25.2952 19.8014 24.8166C19.2468 24.5805 18.7509 24.2251 18.3494 23.7755C17.9478 23.3259 17.6504 22.7932 17.4783 22.2155C17.3061 21.6378 17.2635 21.0292 17.3535 20.4332C17.4435 19.8371 17.6639 19.2682 17.999 18.7671C19.7689 19.3937 21.5851 19.8808 23.4311 20.2239C26.5176 20.7918 28.0238 20.0757 28.6658 18.9646C29.5301 17.3596 28.666 15.7793 26.6412 14.7175C24.709 13.7713 22.4949 13.5732 20.4254 14.1613C18.3558 14.7493 16.5769 16.082 15.4309 17.9028ZM26.3202 15.1126C26.5492 15.2076 26.7521 15.3558 26.9122 15.5451C27.0722 15.7344 27.1847 15.9593 27.2403 16.2009C27.2958 16.4425 27.293 16.6939 27.2317 16.9341C27.1704 17.1743 27.0526 17.3964 26.8881 17.5818C26.458 18.3873 25.759 19.0165 24.9127 19.3597C22.6538 19.614 20.3681 19.2558 18.2953 18.3226C20.7645 14.3471 24.5177 14.1496 26.3202 15.1126Z" fill="#A39161"/>
</svg>
